<?xml version="1.0" standalone="no"?>
<!DOCTYPE svg PUBLIC "-//W3C//DTD SVG 20010904//EN"
 "http://www.w3.org/TR/2001/REC-SVG-20010904/DTD/svg10.dtd">
<svg version="1.0" xmlns="http://www.w3.org/2000/svg"
 width="91px" height="79px" viewBox="0 0 512.000000 512.000000"
 preserveAspectRatio="xMidYMid meet">

<g transform="translate(0.000000,512.000000) scale(0.100000,-0.100000)"
fill="#000000" stroke="none">
<path d="M2404 5110 c-1128 -65 -2091 -884 -2339 -1989 -44 -195 -58 -332 -59
-556 0 -276 27 -477 99 -724 198 -682 689 -1263 1330 -1576 465 -227 949 -306
1465 -239 866 112 1633 685 1992 1489 148 331 219 670 219 1044 0 244 -34 524
-67 552 -12 10 -13 8 -8 -7 4 -10 -27 16 -69 58 -42 43 -77 82 -77 88 0 6 -5
8 -10 5 -6 -3 -14 4 -19 17 -6 13 -10 19 -10 14 -2 -24 -62 59 -91 127 -18 42
-35 76 -37 73 -3 -2 3 -18 12 -36 17 -34 13 -66 -7 -54 -8 5 -9 2 -5 -9 3 -10
4 -17 2 -17 -3 0 -34 59 -70 130 -36 72 -69 130 -74 130 -5 0 7 -29 26 -65 19
-36 31 -70 27 -76 -4 -8 -3 -9 4 -5 8 5 10 1 5 -10 -5 -13 -3 -15 7 -9 9 5 11
4 6 -3 -11 -18 -14 -15 -36 28 -11 22 -23 40 -26 40 -2 0 0 -10 7 -21 8 -16 8
-20 0 -14 -6 3 -23 30 -37 58 -38 74 -133 225 -147 234 -7 4 -7 0 2 -10 7 -9
11 -17 7 -17 -4 0 10 -25 30 -57 19 -31 37 -64 39 -75 2 -10 7 -23 10 -28 3
-6 4 -10 1 -10 -3 0 -17 20 -31 44 -14 24 -33 50 -42 58 -13 10 -13 7 2 -17
39 -63 -4 -6 -60 79 -177 271 -431 531 -713 732 -57 40 -113 85 -124 99 -10
14 -25 25 -31 25 -7 0 -1 -10 13 -21 l25 -21 -25 15 c-14 8 -24 20 -23 26 2 6
0 11 -5 11 -4 0 -18 9 -31 19 -18 14 -21 20 -11 26 9 5 11 4 6 -3 -4 -7 -4
-12 1 -13 28 -2 47 -11 97 -43 31 -20 56 -33 56 -30 0 4 8 0 18 -7 15 -13 16
-12 4 3 -12 15 -98 69 -244 152 -46 26 -70 48 -28 26 11 -6 20 -8 20 -6 0 3
-18 15 -40 26 -23 12 -38 25 -35 30 4 6 8 10 11 10 3 0 2 -5 -2 -12 -5 -8 -2
-9 10 -5 11 5 15 3 10 -5 -4 -7 -3 -8 4 -4 6 4 34 -5 62 -19 60 -31 100 -46
100 -40 0 3 -63 36 -140 75 -77 39 -140 73 -140 76 0 3 6 4 13 1 8 -3 14 1 14
9 0 7 -3 12 -6 10 -3 -2 -15 5 -26 16 -17 17 -10 16 40 -7 95 -43 98 -39 4 7
-92 46 -131 76 -122 91 3 6 2 7 -4 4 -5 -3 -24 9 -41 27 -28 31 -40 35 -134
49 -176 28 -373 37 -554 27z m1286 -686 c0 -3 -13 4 -30 16 -16 12 -30 24 -30
26 0 3 14 -4 30 -16 17 -12 30 -24 30 -26z m223 -169 c135 -121 387 -405 359
-405 -6 0 -25 18 -42 40 -17 22 -35 38 -40 35 -7 -5 -45 32 -45 44 1 3 -75 82
-167 175 -92 93 -168 165 -168 161 0 -5 -9 0 -20 10 -11 10 -17 21 -15 26 3 4
-13 22 -35 40 -22 18 -40 36 -40 41 0 13 97 -64 213 -167z m-212 138 c13 -16
12 -17 -3 -4 -17 13 -22 21 -14 21 2 0 10 -8 17 -17z m-872 -23 c76 -27 195
-105 246 -161 61 -68 114 -158 142 -243 35 -110 38 -258 6 -361 -66 -211 -243
-373 -458 -419 l-70 -14 152 -1 c127 -1 161 -4 206 -21 103 -39 181 -135 194
-240 6 -50 6 -50 43 -50 58 0 155 -54 201 -112 71 -90 73 -107 66 -578 -6
-458 -9 -482 -70 -561 -45 -60 -118 -106 -187 -121 l-58 -12 -6 -43 c-12 -91
-80 -183 -171 -231 l-50 -27 -345 -3 c-373 -4 -1364 14 -1522 28 -116 10 -176
38 -243 113 -75 82 -82 115 -96 433 -7 153 -13 486 -13 739 l-1 460 29 53 c36
64 83 107 152 139 44 20 74 25 200 30 119 6 140 8 104 15 -224 39 -423 238
-460 459 -14 83 -8 199 14 272 59 189 220 360 411 433 102 39 263 46 367 14
132 -40 242 -123 318 -241 46 -71 66 -120 84 -209 12 -59 14 -62 21 -35 41
180 103 287 224 388 55 46 162 102 234 122 77 22 253 14 336 -15z m912 -7 c13
-16 12 -17 -3 -4 -17 13 -22 21 -14 21 2 0 10 -8 17 -17z m149 -178 c13 -14
21 -25 18 -25 -2 0 -15 11 -28 25 -13 14 -21 25 -18 25 2 0 15 -11 28 -25z
m146 -147 l29 -33 -32 29 c-31 28 -38 36 -30 36 2 0 16 -15 33 -32z m175 -145
c13 -16 12 -17 -3 -4 -10 7 -18 15 -18 17 0 8 8 3 21 -13z m40 -50 c13 -16 12
-17 -3 -4 -10 7 -18 15 -18 17 0 8 8 3 21 -13z m60 -50 c13 -16 12 -17 -3 -4
-17 13 -22 21 -14 21 2 0 10 -8 17 -17z m459 -423 l13 -25 -20 20 c-11 11 -18
24 -16 28 6 10 7 9 23 -23z m-383 -301 c30 -14 52 -35 70 -66 l26 -45 -6 -516
c-7 -571 -21 -964 -38 -1029 -14 -54 -82 -119 -133 -128 -80 -15 -115 5 -378
217 -76 61 -98 85 -103 110 -4 18 -11 38 -15 43 -5 6 -11 31 -15 58 -4 26 -11
50 -16 53 -5 3 -9 16 -9 29 0 17 -5 22 -17 20 -10 -2 -36 -6 -59 -8 l-41 -5
-13 97 c-7 53 -17 179 -21 281 -5 102 -11 235 -15 296 l-6 111 293 229 c162
125 312 238 334 251 50 29 106 29 162 2z"/>
<path d="M3780 4336 c0 -2 8 -10 18 -17 15 -13 16 -12 3 4 -13 16 -21 21 -21
13z"/>
<path d="M4160 3956 c0 -2 8 -10 18 -17 15 -13 16 -12 3 4 -13 16 -21 21 -21
13z"/>
<path d="M2013 3666 c-18 -106 -83 -227 -168 -311 -78 -79 -193 -145 -292
-169 -52 -13 -4 -14 487 -14 491 0 538 1 475 14 -107 21 -225 84 -305 163 -95
94 -147 195 -177 345 l-8 39 -12 -67z"/>
<path d="M1102 2374 c3 -267 9 -488 13 -492 4 -4 416 -9 916 -10 l909 -4 0
151 c0 112 -3 151 -12 151 -7 0 -168 155 -358 345 l-345 345 -564 0 -564 0 5
-486z"/>
<path d="M3110 5030 c8 -5 20 -10 25 -10 6 0 3 5 -5 10 -8 5 -19 10 -25 10 -5
0 -3 -5 5 -10z"/>
<path d="M4560 3660 c6 -11 13 -20 16 -20 2 0 0 9 -6 20 -6 11 -13 20 -16 20
-2 0 0 -9 6 -20z"/>
</g>
</svg>
